# xmcd
#
# Track frame offsets: 
#        150
#        19244
#        37156
#        55558
#        74582
#        92147
#        110645
#        130382
#        145368
#        166200
#        181389
#        198754
#        214399
#        233608
#        252924
#        273485
#        289564
#        306825
#        324767
#
# Disc length: 4519 seconds
#
# Revision: 0
# Processed by: cddbd v1.5.2PL0 Copyright (c) Steve Scherf et al.
# Submitted via: ExactAudioCopy v0.95b4
#
DISCID=1b11a513
DTITLE=Various Artist - ERG Nu Urban Traxx #104
DYEAR=2007
DGENRE=R&B
TTITLE0=Da Shop Boyz - Party Like A Rockstar
TTITLE1=Young Jeezy Ft Keyshia Cole - Dreamin'
TTITLE2=Ludacris - Slap
TTITLE3=Rihanna Ft Jay Z - Umbrella
TTITLE4=Paul Wall Ft Jermaine Dupri - I'm Throwed
TTITLE5=Fergie Ft Ludacris - Glamourous
TTITLE6=MusiQ Soulchild - Teachme
TTITLE7=Sterling Simms - Nasty Girl
TTITLE8=Lil' Boosie Ft Foxx and Webbie - Wipe Me Down
TTITLE9=Mims - Like This
TTITLE10=Mike Jones Ft Bun B and Snoop Dogg - My 64
TTITLE11=Gerald Levert - DJ Don't
TTITLE12=Young Buck - Get Buck
TTITLE13=Omarion Ft Usher - Ice Box (Remix)
TTITLE14=Lloyd - Valentine
TTITLE15=Jibbs Ft Fabo - Smile
TTITLE16=Young Berg - Sexy Lady
TTITLE17=Brian McKnight - What's My Name
TTITLE18=The Fixxers Ft DJ Quik and AMG - Can We Werk Wit Dat
EXTD=
EXTT0=
EXTT1=
EXTT2=
EXTT3=
EXTT4=
EXTT5=
EXTT6=
EXTT7=
EXTT8=
EXTT9=
EXTT10=
EXTT11=
EXTT12=
EXTT13=
EXTT14=
EXTT15=
EXTT16=
EXTT17=
EXTT18=
PLAYORDER=
